<svg width="195" height="195" viewBox="0 0 195 195" fill="none" xmlns="http://www.w3.org/2000/svg">
<path d="M91.4062 121.875H42.6562V100.547C42.6562 102.23 44.0204 103.594 45.7031 103.594H88.3594C90.0421 103.594 91.4062 102.23 91.4062 100.547V95.9766C91.4062 90.2136 86.9497 86.839 81.1278 85.4043C80.8717 85.3412 80.6284 85.2773 80.3761 85.2006C77.6435 84.37 60.3452 79.1987 53.3203 79.2188C47.4307 79.2188 42.6562 83.9933 42.6562 89.8829V73.125C42.6562 63.0285 34.4715 54.8438 24.375 54.8438C14.2785 54.8438 6.09375 63.0285 6.09375 73.125V164.531C6.09375 171.262 11.5503 176.719 18.2812 176.719H24.375V185.859C24.375 187.542 25.7391 188.906 27.4219 188.906H39.6094C41.2921 188.906 42.6562 187.542 42.6562 185.859V176.719H152.344V185.859C152.344 187.542 153.708 188.906 155.391 188.906H167.578C169.261 188.906 170.625 187.542 170.625 185.859V176.719H176.719C183.45 176.719 188.906 171.262 188.906 164.531V118.805C188.906 107.026 179.357 97.4769 167.578 97.4769H100.547C95.4986 97.4769 91.4062 101.569 91.4062 106.618V121.875ZM24.375 67.0312C27.7405 67.0312 30.4688 69.7595 30.4688 73.125V134.062H91.4062V137.109C91.4062 138.792 92.7704 140.156 94.4531 140.156H176.719V164.531H18.2812V73.125C18.2812 69.7595 21.0095 67.0312 24.375 67.0312Z" fill="#212121"/>
</svg>
