<svg width="341" height="201" viewBox="0 0 341 201" fill="none" xmlns="http://www.w3.org/2000/svg">
<rect width="341" height="201" rx="25" fill="#1A1C1D"/>
<mask id="mask0_537_7311" style="mask-type:alpha" maskUnits="userSpaceOnUse" x="0" y="24" width="341" height="48">
<rect x="341" y="24" width="48" height="341" transform="rotate(90 341 24)" fill="black"/>
</mask>
<g mask="url(#mask0_537_7311)">
<rect y="2" width="341" height="201" rx="25" fill="black"/>
</g>
<path d="M322.284 43.6705L322.284 46.1705L292.17 46.1705L292.17 43.6705L322.284 43.6705ZM322.284 48.4318L322.284 50.9318L292.17 50.9318L292.17 48.4318L322.284 48.4318ZM296 36.7273L300.443 53.8295H300.659L305.205 36.7273H309.25L313.795 53.8409H314.011L318.455 36.7273H322.409L316.17 60H311.864L307.33 43.6705H307.148L302.591 60H298.284L292.045 36.7273H296Z" fill="#383838"/>
</svg>
