<svg width="195" height="195" viewBox="0 0 195 195" fill="none" xmlns="http://www.w3.org/2000/svg">
<path d="M115.598 109.688H140.217C143.447 109.688 146.067 107.067 146.067 103.838V78.975C146.067 75.7453 143.447 73.125 140.217 73.125H115.598C112.369 73.125 109.748 75.7453 109.748 78.975V103.838C109.748 107.067 112.369 109.688 115.598 109.688Z" fill="white"/>
<path d="M91.2844 54.8438C91.2078 54.8438 91.1311 54.8452 91.0546 54.8481C82.5714 55.1682 74.8507 59.7016 70.2161 66.5943L68.1006 69.6769L68.0586 69.739L45.4323 103.594H29.7375C19.1665 103.594 10.217 110.483 7.17411 120.023C7.08413 120.305 7.01511 120.593 6.9672 120.883C6.27578 123.321 6.09375 125.881 6.09375 129.614V149.967C6.09375 158.025 12.6001 164.531 20.6578 164.531H32.6431C36.0662 171.737 43.4107 176.719 51.9188 176.719C60.4269 176.719 67.7714 171.737 71.1944 164.531H123.927C127.351 171.737 134.695 176.719 143.203 176.719C151.711 176.719 159.056 171.737 162.479 164.531H174.342C182.4 164.531 188.906 158.025 188.906 149.967V118.889C188.906 115.388 188.564 111.912 187.953 108.587C187.904 108.32 187.837 108.057 187.754 107.8C187.194 104.777 186.357 101.786 185.299 98.9219L175.317 72.3252C175.173 71.9194 174.977 71.4663 174.847 71.1726C174.814 71.0874 174.779 71.0028 174.742 70.9191C170.489 61.2319 160.88 54.8438 150.15 54.8438H91.2844ZM176.719 146.25H162.479C159.056 139.044 151.711 134.062 143.203 134.062C134.695 134.062 127.351 139.044 123.927 146.25H71.1944C67.7714 139.044 60.4269 134.062 51.9188 134.062C43.4107 134.062 36.0662 139.044 32.6431 146.25H18.2812V140.156C21.605 140.123 24.3141 137.394 24.3141 134.062V127.969C24.3141 125.054 22.2396 122.6 19.4939 122.01C21.3869 118.319 25.2529 115.781 29.7375 115.781H48.6281C50.4064 115.781 52.096 115.004 53.2536 113.655L53.5298 113.333C53.6883 113.148 53.8355 112.954 53.9707 112.752L56.0185 109.688H91.5891C94.8188 109.688 97.4391 107.067 97.4391 103.838V78.975C97.4391 75.7453 94.8188 73.125 91.5891 73.125H80.5157C83.0693 69.5047 87.1361 67.2265 91.4102 67.0312H150.15C155.12 67.0312 159.667 69.5502 162.348 73.5649C159.998 74.4959 158.316 76.8002 158.316 79.4625V103.838C158.316 107.067 160.936 109.688 164.166 109.688H175.707C175.76 109.964 175.811 110.24 175.858 110.516C175.908 110.805 175.978 111.09 176.069 111.368C176.489 113.834 176.719 116.372 176.719 118.889V122.375C173.01 123.657 170.369 127.258 170.564 131.442C170.751 135.231 173.308 138.338 176.719 139.577V146.25ZM51.7969 164.531C46.7486 164.531 42.6562 160.439 42.6562 155.391C42.6562 150.342 46.7486 146.25 51.7969 146.25C56.8451 146.25 60.9375 150.342 60.9375 155.391C60.9375 160.439 56.8451 164.531 51.7969 164.531ZM143.203 164.531C138.155 164.531 134.062 160.439 134.062 155.391C134.062 150.342 138.155 146.25 143.203 146.25C148.251 146.25 152.344 150.342 152.344 155.391C152.344 160.439 148.251 164.531 143.203 164.531Z" fill="white"/>
</svg>
