<svg width="195" height="195" viewBox="0 0 195 195" fill="none" xmlns="http://www.w3.org/2000/svg">
<path d="M96.5254 117.883H96.952C106.093 118.127 113.405 125.561 113.405 134.702C113.405 142.502 108.104 149.022 100.913 150.972V157.797C100.913 160.234 98.9629 162.184 96.5254 162.184C94.0879 162.184 92.1379 160.234 92.1379 157.797V150.972C84.9473 149.022 79.6457 142.502 79.6457 134.702C79.6457 132.264 81.5957 130.314 84.0332 130.314C86.4707 130.314 88.4207 132.264 88.4207 134.702C88.4207 139.211 92.0161 142.806 96.4645 142.806C100.913 142.806 104.569 139.15 104.569 134.702C104.569 130.253 100.913 126.597 96.4645 126.597H96.0379C86.9582 126.353 79.6457 118.919 79.6457 109.778C79.6457 101.978 84.9473 95.4578 92.1379 93.5078V86.6828C92.1379 84.2453 94.0879 82.2953 96.5254 82.2953C98.9629 82.2953 100.913 84.2453 100.913 86.6828V93.5078C108.104 95.4578 113.405 101.978 113.405 109.778C113.405 112.216 111.455 114.166 109.018 114.166C106.58 114.166 104.63 112.216 104.63 109.778C104.63 105.33 100.974 101.673 96.5254 101.673C92.077 101.673 88.4207 105.33 88.4207 109.778C88.4207 114.227 92.077 117.883 96.5254 117.883Z" fill="#212121"/>
<path d="M64.1794 31.077L81.157 50.942L79.3202 52.9916C44.3807 60.8288 18.2812 92.0308 18.2812 129.338C18.2812 162.137 44.897 188.752 77.6953 188.752H115.294C148.089 188.752 174.703 162.142 174.708 129.348C174.765 92.0325 148.668 60.8294 113.73 52.9917C113.757 52.749 113.77 52.5025 113.77 52.2529C113.77 51.1733 113.513 50.1502 113.058 49.2418L127.5 32.7102L128.432 31.272C129.521 28.8975 129.799 26.231 129.225 23.6828C128.65 21.1345 127.254 18.8455 125.252 17.1679C123.25 15.4903 120.751 14.5169 118.142 14.3975C115.532 14.278 112.956 15.0192 110.809 16.5069L105.672 10.4131C104.52 9.12273 103.109 8.0897 101.531 7.38144C99.9529 6.67318 98.2432 6.30563 96.5135 6.30275C94.7838 6.29988 93.073 6.66175 91.4926 7.36476C89.9122 8.06776 88.4978 9.0961 87.3417 10.3827L81.9609 16.3911C79.8193 14.8724 77.2369 14.1018 74.6132 14.1983C71.9895 14.2948 69.4708 15.2531 67.4465 16.925C65.4222 18.5969 64.0051 20.8892 63.4146 23.4473C62.824 26.0055 63.0928 28.687 64.1794 31.077ZM87.3295 39.5169L76.9945 27.5792C79.3956 28.7362 82.1124 29.0647 84.72 28.5134C87.3276 27.9621 89.6789 26.5621 91.4062 24.5324L96.2813 18.201L101.692 24.6116C103.38 26.5736 105.656 27.938 108.181 28.5013C110.707 29.0647 113.347 28.7968 115.708 27.7377L105.422 39.5169H87.3295ZM30.4688 129.338C30.4688 92.8507 60.0373 63.2821 96.525 63.2821C133.014 63.2821 162.576 92.8505 162.52 129.329L162.52 129.338C162.52 155.406 141.361 176.565 115.294 176.565H77.6953C51.628 176.565 30.4688 155.406 30.4688 129.338Z" fill="#212121"/>
</svg>
