<svg width="106" height="106" viewBox="0 0 106 106" fill="none" xmlns="http://www.w3.org/2000/svg">
<circle cx="53" cy="53" r="53" fill="white"/>
<g clip-path="url(#clip0_287_3194)">
<path d="M53.2203 78.3107C52.0933 78.3107 51.1873 77.4047 51.1873 76.2778L51.1873 56.4788L55.2532 56.4788L55.2532 76.2778C55.2532 77.4047 54.3472 78.3107 53.2203 78.3107Z" fill="#D9D9D9"/>
<path d="M61.3182 47.4064V37.2347L52.8032 32.335L44.8964 37.2347V47.4064L52.8032 52.2224L61.3182 47.4064Z" fill="#D9D9D9"/>
<path d="M44.8562 37.2433L61.3516 37.2323C63.6055 37.2323 65.4285 35.4093 65.4285 33.1554L65.4285 30.7026C65.4285 29.7745 64.6772 29.0232 63.7492 29.0232L42.4476 29.0232C41.5195 29.0232 40.7682 29.7745 40.7682 30.7026L40.7682 33.1554C40.7682 35.4093 42.6022 37.2433 44.8562 37.2433Z" fill="black"/>
<path d="M40.8124 57.7273L65.3843 57.7273C66.5334 57.7273 67.4725 56.7881 67.4725 55.6391V53.6283C67.4725 50.1811 64.6883 47.3969 61.2411 47.3969L44.9556 47.3969C41.5084 47.3969 38.7242 50.1811 38.7242 53.6283V55.6391C38.7242 56.7881 39.6633 57.7273 40.8124 57.7273Z" fill="black"/>
</g>
<defs>
<clipPath id="clip0_287_3194">
<rect width="50" height="50" fill="white" transform="translate(18 48.3553) rotate(-45)"/>
</clipPath>
</defs>
</svg>
