<svg width="143" height="19" viewBox="0 0 143 19" fill="none" xmlns="http://www.w3.org/2000/svg">
<path d="M5.83714 1.61607C4.69544 2.05024 3.81102 2.72561 3.18389 3.64218C2.55676 4.54268 2.2432 5.65221 2.2432 6.9708C2.2432 7.56577 2.29948 7.98385 2.41204 8.22506C2.5246 8.45018 2.58088 8.57882 2.58088 8.61098C1.71255 8.61098 1.0613 8.4341 0.627131 8.08034C0.209044 7.71049 0 7.10748 0 6.27131C0 5.24217 0.418087 4.24519 1.25426 3.28038C2.10652 2.29948 3.19193 1.51155 4.51052 0.916577C5.8291 0.305526 7.14768 0 8.46626 0C8.69139 0 9.01299 0.0160805 9.43108 0.0482416L9.64816 14.8823L14.7134 0.120602H17.7767L17.9938 14.8823L23.0591 0.120602H24.7475L18.0421 18.0903H14.5687L14.2793 5.81302L9.6964 18.0903H6.22306L5.83714 1.61607Z" fill="#979797"/>
<path d="M25.9515 18.235C25.0349 18.235 24.2711 17.9215 23.66 17.2943C23.049 16.6672 22.7435 15.6863 22.7435 14.3516C22.7435 13.1617 22.9766 11.9155 23.443 10.613C23.9254 9.2944 24.6329 8.18486 25.5656 7.28436C26.5143 6.36779 27.6399 5.9095 28.9424 5.9095C29.6017 5.9095 30.0922 6.02206 30.4138 6.24719C30.7354 6.47231 30.8962 6.76979 30.8962 7.13964V7.30848L31.1615 6.0301H34.6348L32.8982 14.231C32.8338 14.4722 32.8017 14.7295 32.8017 15.0029C32.8017 15.6943 33.1313 16.0401 33.7906 16.0401C34.2409 16.0401 34.6268 15.831 34.9484 15.4129C35.2861 14.9949 35.5514 14.4481 35.7444 13.7728H36.7574C36.1625 15.5094 35.4228 16.6913 34.5383 17.3185C33.67 17.9295 32.7936 18.235 31.9092 18.235C31.2339 18.235 30.6871 18.0501 30.269 17.6803C29.867 17.2943 29.6258 16.7396 29.5454 16.0159C29.0791 16.6752 28.5565 17.2139 27.9776 17.632C27.4148 18.034 26.7394 18.235 25.9515 18.235ZM27.5193 15.8953C27.9213 15.8953 28.3153 15.7104 28.7012 15.3406C29.1032 14.9547 29.3766 14.432 29.5213 13.7728L30.6791 8.32154C30.6791 8.1125 30.5987 7.91149 30.4379 7.71853C30.2771 7.50949 30.0278 7.40496 29.6901 7.40496C29.0469 7.40496 28.468 7.78285 27.9535 8.53862C27.4389 9.27832 27.0369 10.1788 26.7475 11.2401C26.458 12.2853 26.3133 13.2099 26.3133 14.014C26.3133 14.818 26.4259 15.3325 26.651 15.5577C26.8922 15.7828 27.1816 15.8953 27.5193 15.8953Z" fill="#979797"/>
<path d="M44.4607 18.235C43.4798 18.235 42.7562 17.9777 42.2899 17.4632C41.8396 16.9325 41.6145 16.2813 41.6145 15.5094C41.6145 15.1717 41.6547 14.7938 41.7351 14.3758C41.8155 13.9416 41.8959 13.5235 41.9763 13.1215C42.0728 12.7195 42.1371 12.4622 42.1693 12.3496C42.2979 11.7868 42.4185 11.2321 42.5311 10.6853C42.6436 10.1386 42.6999 9.6964 42.6999 9.35872C42.6999 8.53862 42.4105 8.12858 41.8316 8.12858C41.4135 8.12858 41.0436 8.33762 40.722 8.75571C40.4004 9.15771 40.1431 9.68836 39.9502 10.3477L38.31 18.0903H34.8366L37.3934 6.0301H40.8668L40.6014 7.28436C41.4054 6.38387 42.3461 5.93362 43.4235 5.93362C44.2436 5.93362 44.8949 6.15874 45.3773 6.60899C45.8597 7.05924 46.1009 7.74265 46.1009 8.65923C46.1009 9.12555 46.0446 9.64816 45.932 10.2271C45.8195 10.7899 45.6587 11.4813 45.4496 12.3014C45.321 12.7999 45.2004 13.2903 45.0878 13.7728C44.9913 14.2391 44.9431 14.6089 44.9431 14.8823C44.9431 15.2039 45.0155 15.4531 45.1602 15.63C45.3049 15.8069 45.5541 15.8953 45.9079 15.8953C46.3903 15.8953 46.7762 15.7265 47.0657 15.3888C47.3551 15.0351 47.6446 14.4964 47.934 13.7728H48.9471C48.3521 15.5416 47.6607 16.7315 46.8727 17.3426C46.1009 17.9375 45.2969 18.235 44.4607 18.235Z" fill="#979797"/>
<path d="M50.8256 18.235C49.9091 18.235 49.1453 17.9215 48.5342 17.2943C47.9232 16.6672 47.6176 15.6863 47.6176 14.3516C47.6176 13.1617 47.8508 11.9155 48.3171 10.613C48.7995 9.2944 49.5071 8.18486 50.4397 7.28436C51.3885 6.36779 52.5141 5.9095 53.8166 5.9095C54.4759 5.9095 54.9663 6.02206 55.2879 6.24719C55.6095 6.47231 55.7703 6.76979 55.7703 7.13964V7.23612L56.9522 1.68843L60.5221 1.20602L57.7482 14.231C57.6839 14.4722 57.6517 14.7295 57.6517 15.0029C57.6517 15.3245 57.7241 15.5577 57.8688 15.7024C58.0296 15.831 58.2869 15.8953 58.6407 15.8953C59.0909 15.8953 59.4768 15.7024 59.7984 15.3165C60.1361 14.9305 60.4015 14.416 60.5944 13.7728H61.6075C60.6266 16.6511 59.0105 18.0903 56.7593 18.0903C56.1 18.0903 55.5613 17.9134 55.1432 17.5597C54.7412 17.2059 54.492 16.6913 54.3955 16.0159C53.9774 16.6592 53.4709 17.1898 52.8759 17.6079C52.297 18.026 51.6136 18.235 50.8256 18.235ZM52.3935 15.8953C52.7794 15.8953 53.1653 15.7185 53.5513 15.3647C53.9533 15.0109 54.2266 14.5205 54.3714 13.8934V13.7728L55.5532 8.24918C55.4085 7.68637 55.0789 7.40496 54.5643 7.40496C53.9211 7.40496 53.3422 7.78285 52.8276 8.53862C52.3131 9.27832 51.9111 10.1788 51.6216 11.2401C51.3322 12.2853 51.1875 13.2099 51.1875 14.014C51.1875 14.818 51.3 15.3325 51.5251 15.5577C51.7663 15.7828 52.0558 15.8953 52.3935 15.8953Z" fill="#979797"/>
<path d="M64.0531 18.235C62.8631 18.235 61.9385 17.9295 61.2792 17.3185C60.6199 16.6913 60.2903 15.7185 60.2903 14.3999C60.2903 13.2903 60.5074 12.0682 60.9415 10.7336C61.3757 9.39892 62.0832 8.24918 63.0641 7.28436C64.045 6.30347 65.2912 5.81302 66.8028 5.81302C68.5716 5.81302 69.456 6.58487 69.456 8.12858C69.456 9.02907 69.1987 9.85721 68.6842 10.613C68.1696 11.3688 67.4862 11.9798 66.6339 12.4461C65.7817 12.8964 64.8731 13.1537 63.9083 13.218C63.8762 13.7004 63.8601 14.022 63.8601 14.1828C63.8601 14.9707 63.9968 15.5094 64.2701 15.7989C64.5435 16.0722 64.9857 16.2089 65.5968 16.2089C66.4651 16.2089 67.2048 16.0079 67.8158 15.6059C68.443 15.2039 69.1264 14.5928 69.8661 13.7728H70.6862C68.9013 16.7476 66.6902 18.235 64.0531 18.235ZM64.1013 12.0602C64.6963 12.028 65.2591 11.819 65.7897 11.4331C66.3365 11.0471 66.7706 10.5567 67.0922 9.96173C67.4299 9.36676 67.5988 8.73963 67.5988 8.08034C67.5988 7.42104 67.3978 7.0914 66.9957 7.0914C66.4169 7.0914 65.846 7.59793 65.2832 8.61098C64.7365 9.62404 64.3425 10.7738 64.1013 12.0602Z" fill="#979797"/>
<path d="M71.5012 6.0301H74.9745L74.6609 7.52557C75.2077 7.04316 75.6981 6.67331 76.1323 6.41603C76.5825 6.15874 77.0649 6.0301 77.5795 6.0301C78.0941 6.0301 78.4961 6.20698 78.7855 6.56075C79.0911 6.91452 79.2438 7.34064 79.2438 7.83913C79.2438 8.30546 79.0911 8.71551 78.7855 9.06927C78.48 9.42304 78.0539 9.59992 77.5071 9.59992C77.1534 9.59992 76.9122 9.51952 76.7835 9.35872C76.671 9.18183 76.5825 8.93259 76.5182 8.61098C76.47 8.40194 76.4217 8.24918 76.3735 8.1527C76.3253 8.05622 76.2368 8.00797 76.1082 8.00797C75.7705 8.00797 75.481 8.08034 75.2398 8.22506C75.0147 8.3537 74.7172 8.58686 74.3474 8.92455L72.4177 18.0903H68.9444L71.5012 6.0301Z" fill="#979797"/>
<path d="M82.1377 18.235C81.0443 18.235 80.2081 17.9697 79.6292 17.4391C79.0503 16.8923 78.7608 16.1285 78.7608 15.1476C78.7608 14.6652 78.8171 14.2069 78.9297 13.7728L81.5106 1.68843L85.0804 1.20602L83.9226 6.63311C84.3729 6.35975 84.7427 6.18286 85.0322 6.10246C85.3216 6.00598 85.611 5.95774 85.9005 5.95774C87.798 5.95774 88.7467 7.3326 88.7467 10.0823C88.7467 11.1919 88.5296 12.3818 88.0955 13.6521C87.6774 14.9064 86.9698 15.9838 85.9728 16.8843C84.992 17.7848 83.7136 18.235 82.1377 18.235ZM83.4884 15.8953C83.9869 15.8953 84.4533 15.5898 84.8874 14.9788C85.3216 14.3516 85.6673 13.5798 85.9246 12.6632C86.1819 11.7306 86.3105 10.8381 86.3105 9.98585C86.3105 9.34264 86.198 8.79591 85.9728 8.34566C85.7477 7.89541 85.4342 7.67029 85.0322 7.67029C84.791 7.67029 84.5176 7.71049 84.2121 7.79089C83.9226 7.85521 83.7216 7.95973 83.6091 8.10446L82.2824 14.231C82.2342 14.424 82.2101 14.6089 82.2101 14.7858C82.2101 15.5255 82.6362 15.8953 83.4884 15.8953Z" fill="#979797"/>
<path d="M93.1688 18.1868C91.9789 18.1868 91.0382 17.8813 90.3467 17.2702C89.6553 16.6592 89.3096 15.6943 89.3096 14.3758C89.3096 13.2823 89.5347 12.0682 89.9849 10.7336C90.4352 9.39892 91.1588 8.24918 92.1558 7.28436C93.1528 6.30347 94.407 5.81302 95.9186 5.81302C97.9768 5.81302 99.006 7.09944 99.006 9.67228V9.6964C99.0542 9.71248 99.1427 9.72052 99.2713 9.72052C99.8019 9.72052 100.413 9.58384 101.104 9.31048C101.796 9.02103 102.423 8.67531 102.986 8.2733L103.203 8.92455C102.737 9.42304 102.126 9.84917 101.37 10.2029C100.63 10.5406 99.818 10.7818 98.9336 10.9265C98.805 12.3898 98.4753 13.6682 97.9447 14.7617C97.414 15.8551 96.7306 16.6994 95.8944 17.2943C95.0583 17.8893 94.1497 18.1868 93.1688 18.1868ZM94.1337 16.0159C94.5196 16.0159 94.9055 15.7989 95.2914 15.3647C95.6774 14.9145 96.015 14.3114 96.3045 13.5557C96.5939 12.7838 96.803 11.9316 96.9316 10.9989C96.4975 10.9024 96.2804 10.5647 96.2804 9.98585C96.2804 9.32656 96.5296 8.89239 97.0281 8.68335C96.9959 8.1527 96.9155 7.79089 96.7869 7.59793C96.6583 7.38888 96.4331 7.28436 96.1115 7.28436C95.5809 7.28436 95.0663 7.67029 94.5678 8.44214C94.0693 9.21399 93.6673 10.1386 93.3618 11.216C93.0563 12.2934 92.9035 13.2421 92.9035 14.0622C92.9035 14.834 92.992 15.3567 93.1688 15.63C93.3457 15.8873 93.6673 16.0159 94.1337 16.0159Z" fill="#979797"/>
<path d="M103.141 18.235C102.225 18.235 101.461 17.9215 100.85 17.2943C100.239 16.6672 99.9335 15.6863 99.9335 14.3516C99.9335 13.1617 100.167 11.9155 100.633 10.613C101.115 9.2944 101.823 8.18486 102.756 7.28436C103.704 6.36779 104.83 5.9095 106.132 5.9095C106.792 5.9095 107.282 6.02206 107.604 6.24719C107.925 6.47231 108.086 6.76979 108.086 7.13964V7.30848L108.352 6.0301H111.825L110.088 14.231C110.024 14.4722 109.992 14.7295 109.992 15.0029C109.992 15.6943 110.321 16.0401 110.981 16.0401C111.431 16.0401 111.817 15.831 112.138 15.4129C112.476 14.9949 112.741 14.4481 112.934 13.7728H113.947C113.352 15.5094 112.613 16.6913 111.728 17.3185C110.86 17.9295 109.984 18.235 109.099 18.235C108.424 18.235 107.877 18.0501 107.459 17.6803C107.057 17.2943 106.816 16.7396 106.735 16.0159C106.269 16.6752 105.746 17.2139 105.168 17.632C104.605 18.034 103.929 18.235 103.141 18.235ZM104.709 15.8953C105.111 15.8953 105.505 15.7104 105.891 15.3406C106.293 14.9547 106.567 14.432 106.711 13.7728L107.869 8.32154C107.869 8.1125 107.789 7.91149 107.628 7.71853C107.467 7.50949 107.218 7.40496 106.88 7.40496C106.237 7.40496 105.658 7.78285 105.143 8.53862C104.629 9.27832 104.227 10.1788 103.937 11.2401C103.648 12.2853 103.503 13.2099 103.503 14.014C103.503 14.818 103.616 15.3325 103.841 15.5577C104.082 15.7828 104.372 15.8953 104.709 15.8953Z" fill="#979797"/>
<path d="M114.583 6.0301H118.057L117.743 7.52557C118.29 7.04316 118.78 6.67331 119.215 6.41603C119.665 6.15874 120.147 6.0301 120.662 6.0301C121.176 6.0301 121.578 6.20698 121.868 6.56075C122.173 6.91452 122.326 7.34064 122.326 7.83913C122.326 8.30546 122.173 8.71551 121.868 9.06927C121.562 9.42304 121.136 9.59992 120.589 9.59992C120.236 9.59992 119.994 9.51952 119.866 9.35872C119.753 9.18183 119.665 8.93259 119.6 8.61098C119.552 8.40194 119.504 8.24918 119.456 8.1527C119.408 8.05622 119.319 8.00797 119.19 8.00797C118.853 8.00797 118.563 8.08034 118.322 8.22506C118.097 8.3537 117.799 8.58686 117.43 8.92455L115.5 18.0903H112.027L114.583 6.0301Z" fill="#979797"/>
<path d="M124.906 18.235C123.99 18.235 123.226 17.9215 122.615 17.2943C122.004 16.6672 121.698 15.6863 121.698 14.3516C121.698 13.1617 121.932 11.9155 122.398 10.613C122.88 9.2944 123.588 8.18486 124.52 7.28436C125.469 6.36779 126.595 5.9095 127.897 5.9095C128.557 5.9095 129.047 6.02206 129.369 6.24719C129.69 6.47231 129.851 6.76979 129.851 7.13964V7.23612L131.033 1.68843L134.603 1.20602L131.829 14.231C131.765 14.4722 131.732 14.7295 131.732 15.0029C131.732 15.3245 131.805 15.5577 131.95 15.7024C132.11 15.831 132.368 15.8953 132.721 15.8953C133.172 15.8953 133.558 15.7024 133.879 15.3165C134.217 14.9305 134.482 14.416 134.675 13.7728H135.688C134.707 16.6511 133.091 18.0903 130.84 18.0903C130.181 18.0903 129.642 17.9134 129.224 17.5597C128.822 17.2059 128.573 16.6913 128.476 16.0159C128.058 16.6592 127.552 17.1898 126.957 17.6079C126.378 18.026 125.694 18.235 124.906 18.235ZM126.474 15.8953C126.86 15.8953 127.246 15.7185 127.632 15.3647C128.034 15.0109 128.307 14.5205 128.452 13.8934V13.7728L129.634 8.24918C129.489 7.68637 129.16 7.40496 128.645 7.40496C128.002 7.40496 127.423 7.78285 126.908 8.53862C126.394 9.27832 125.992 10.1788 125.702 11.2401C125.413 12.2853 125.268 13.2099 125.268 14.014C125.268 14.818 125.381 15.3325 125.606 15.5577C125.847 15.7828 126.137 15.8953 126.474 15.8953Z" fill="#979797"/>
<g clip-path="url(#clip0_165_10576)">
<path d="M141.511 9.77092C140.925 9.29352 139.686 9.73493 139.121 10.4185C138.852 10.7507 138.427 11.4947 138.269 12.2262L139.735 13.4209C140.421 13.1206 141.07 12.5666 141.345 12.2337C141.905 11.5458 142.098 10.2483 141.511 9.77092ZM137.728 14.3775C138.146 14.7188 138.713 14.4882 139.194 13.9041C139.244 13.8442 139.313 13.7454 139.36 13.6701L138.103 12.643C138.036 12.7025 137.956 12.7892 137.906 12.8516C137.425 13.4357 137.31 14.0337 137.728 14.3775Z" fill="#979797"/>
<path d="M138.284 6.23779C137.572 5.98816 136.558 6.82652 136.266 7.66252C136.124 8.06778 135.983 8.9115 136.084 9.65073L137.873 10.2775C138.413 9.76275 138.83 9.01601 138.972 8.61076C139.265 7.77475 138.999 6.48832 138.284 6.23779ZM136.317 11.8588C136.827 12.0375 137.278 11.6289 137.528 10.9152C137.554 10.8413 137.588 10.7274 137.604 10.6413L136.072 10.1043C136.028 10.1805 135.983 10.2909 135.957 10.3648C135.707 11.0784 135.805 11.6792 136.317 11.8588Z" fill="#979797"/>
</g>
<defs>
<clipPath id="clip0_165_10576">
<rect width="6.43211" height="8.04013" fill="white" transform="translate(136.93 5.76367) rotate(19.3111)"/>
</clipPath>
</defs>
</svg>
