<svg width="195" height="195" viewBox="0 0 195 195" fill="none" xmlns="http://www.w3.org/2000/svg">
<path d="M170.016 12.2151L78.5247 21.5071C77.9675 20.785 77.0935 20.3198 76.1109 20.3198C74.9074 20.3198 73.867 21.0175 73.3719 22.0305L68.6157 22.5135C65.6907 22.8182 63.4969 25.4385 63.7407 28.3635C63.9844 31.3495 66.5438 33.5432 69.4688 33.3604L73.064 33.1753V42.8268L69.3469 42.7445C66.361 42.6227 63.8625 44.9383 63.7406 47.9242C63.6188 50.8492 65.8735 53.4086 68.7985 53.5914L73.064 53.8983V95.7605H22.4859C20.1703 95.7605 18.2812 97.6495 18.2812 99.9652V110.081C18.2812 132.731 31.7829 152.244 51.1811 160.969L47.0437 175.805C46.0687 179.339 48.6891 182.812 52.4062 182.812H129.675C133.331 182.812 136.012 179.339 135.037 175.805L130.854 160.952C150.259 152.219 163.755 132.716 163.8 110.081V99.9652C163.8 97.6495 161.911 95.7605 159.595 95.7605H91.2234V55.2047L97.5 55.6563V82.1103C97.5 83.793 98.8641 85.1572 100.547 85.1572C102.23 85.1572 103.594 83.793 103.594 82.1103V56.0947L170.442 60.9039C173.489 61.1477 176.17 58.7711 176.292 55.7242L176.536 50.6664C176.658 47.6195 174.22 45.0602 171.173 44.9992L103.594 43.5028V43.415C103.594 41.7322 102.23 40.3681 100.547 40.3681C98.8799 40.3681 97.5255 41.7069 97.5004 43.3679L91.2178 43.2288C91.1216 41.6328 89.7968 40.3681 88.1766 40.3681C86.6021 40.3681 85.3066 41.5623 85.1464 43.0944L79.1578 42.9618V32.8614L171.234 28.1198C174.281 27.937 176.658 25.3167 176.414 22.2698L175.988 17.212C175.744 14.1651 173.063 11.9104 170.016 12.2151ZM85.1297 95.7605H79.1578V54.3367L85.1297 54.7663V95.7605Z" fill="#212121"/>
</svg>
