<svg width="195" height="195" viewBox="0 0 195 195" fill="none" xmlns="http://www.w3.org/2000/svg">
<path d="M90.5546 9.70306L120.53 39.6824C121.471 34.3318 124.181 29.2189 128.661 25.3188C137.874 17.3027 151.701 17.3535 160.974 25.0415L161.02 25.0798L161.065 25.119C161.618 25.596 162.144 26.0911 162.643 26.6024V26.4688L163.134 27.1197C164.259 28.3395 165.238 29.6451 166.072 31.0144L169.529 35.5984C169.71 35.8291 169.886 36.062 170.056 36.2972L170.492 36.8745L170.453 36.8624C173.043 40.6731 174.305 45.0245 174.218 49.4717C174.093 55.7863 171.27 61.8386 166.571 66.5457C162.59 70.5339 158.075 72.1256 153.65 72.4896L179.214 98.1007C179.497 98.3849 179.764 98.6795 180.015 98.983L180.021 98.9138L184.783 104.789C188.878 109.585 188.659 116.761 184.126 121.302L165.258 140.205C159.653 145.821 150.593 145.821 144.988 140.205C144.895 140.112 144.803 140.017 144.713 139.922L144.723 140.007L139.128 134.279H139.274C136.555 131.361 135.226 127.519 135.424 123.647L135.427 123.589L135.431 123.53C135.616 120.905 134.959 118.25 133.446 115.95C128.815 114.75 123.064 116.202 119.335 120.508L119.33 120.513C116.196 124.124 115.197 129.3 116.187 133.453C118.405 134.876 120.977 135.528 123.528 135.418C127.039 135.244 130.451 136.373 133.138 138.482V138.457L133.305 138.615C133.696 138.932 134.072 139.27 134.429 139.628L134.551 139.749C134.695 139.894 134.836 140.041 134.973 140.191L140.611 145.515L140.498 145.509C145.715 151.141 145.589 159.911 140.119 165.39L121.43 184.114C117.175 188.377 110.597 188.837 105.841 185.492L105.895 185.628L99.9419 180.634C99.3402 180.217 98.767 179.739 98.2304 179.201L98.2102 179.181L98.0357 179.035L98.062 179.033L72.6983 153.622C72.3738 158.043 70.8786 162.669 66.909 166.646C62.1591 171.405 56.0515 174.208 49.7107 174.312C45.2463 174.385 40.8759 173.11 37.0558 170.514L37.0698 170.561L31.0018 166.01C29.8146 165.27 28.6767 164.42 27.6027 163.461L26.4878 162.624H26.7118C26.2396 162.159 25.7814 161.671 25.3387 161.16C17.2768 151.868 17.364 137.887 25.4194 128.687L25.428 128.677C29.3046 124.269 34.3441 121.608 39.6193 120.664L9.69262 90.6825C4.89413 85.8751 4.89413 78.1373 9.69262 73.3299L28.7819 54.2054C34.4221 48.5548 43.53 48.5419 49.1861 54.1667C50.0003 54.9597 50.7099 55.8455 51.3044 56.7995L51.317 56.7719L55.6658 64.3115L55.6485 64.3053C56.3406 65.3961 56.8164 66.6042 57.0423 67.9532C57.3029 69.5092 57.1632 71.1483 57.0873 72.0389L57.068 72.2693C57.0271 73.1067 57.1846 74.2076 57.6038 75.4929C62.7863 80.0461 70.7476 79.6171 75.3934 74.2526L75.3978 74.2476C79.4554 69.5728 79.4227 62.4732 75.3952 57.8269L75.3912 57.8223C75.1824 57.581 74.9669 57.3498 74.7452 57.1286C73.5689 56.7469 72.5346 56.5467 71.7228 56.4977C71.6025 56.5771 71.4067 56.7041 70.9849 56.9597L70.9633 56.9727C70.4655 57.2746 69.0582 58.1278 67.2277 58.3299C65.0886 58.5661 63.1372 57.8805 61.6235 56.6326L61.2818 56.4043L60.8553 55.9771C60.5556 55.6768 60.2719 55.3667 60.0043 55.0477L60.0034 55.0727L54.6831 49.5972L54.6607 49.5822L54.2342 49.155C48.5873 43.4977 48.5873 34.3634 54.2342 28.7061L73.2023 9.70306C78.0064 4.89007 85.7498 4.89122 90.5546 9.70306ZM81.8583 18.2872C81.8537 18.2903 81.8434 18.2976 81.8281 18.313L62.86 37.316C62.063 38.1146 61.9734 39.3308 62.5913 40.2232L62.6154 40.2393L63.0418 40.6665C63.4749 41.1004 64.1034 41.3459 64.7188 41.3143L64.7604 41.3121C71.9695 40.9911 79.3813 43.8063 84.6084 49.8487C92.575 59.0439 92.6631 72.9457 84.6046 82.2332C75.1251 93.1769 58.5535 93.6542 48.4337 83.5962L48.3919 83.5546L48.3508 83.5122C43.2686 78.2615 40.8512 71.3663 41.2527 64.528L41.2559 64.4733L41.2601 64.4187C41.3021 63.8719 41.0771 63.2786 40.678 62.893L40.6382 62.8546L40.599 62.8153C39.7073 61.9219 38.2995 61.9219 37.4077 62.8153L18.3184 81.9398C18.3031 81.9552 18.2954 81.9658 18.2919 81.9711L18.2854 81.9831C18.2832 81.9885 18.2812 81.9962 18.2812 82.0062C18.2812 82.0161 18.2832 82.0239 18.2854 82.0293L18.2919 82.0413C18.2954 82.0466 18.3031 82.0572 18.3184 82.0725L53.8911 117.711C57.3564 121.183 57.3564 126.735 53.8911 130.206C51.7834 132.318 48.8416 133.161 46.0575 132.625C41.9266 131.956 37.5785 133.32 34.5857 136.719C30.525 141.361 30.4912 148.503 34.5456 153.174L34.5499 153.179C39.3697 158.744 47.7508 158.995 52.901 153.835C55.8343 150.896 57.019 146.807 56.4093 143.02L56.3961 142.937L56.3851 142.855C56.0402 140.264 56.7594 137.463 58.9005 135.318L59.0216 135.196C62.4931 131.718 68.0545 131.718 71.526 135.196L106.856 170.592L106.875 170.609L106.886 170.617L106.895 170.622C106.897 170.623 106.901 170.624 106.907 170.624C106.912 170.624 106.916 170.623 106.918 170.622L106.927 170.617C106.931 170.614 106.942 170.607 106.957 170.592L125.925 151.589C126.823 150.689 126.823 149.259 125.925 148.36L125.804 148.238C125.371 147.804 124.742 147.559 124.127 147.59L124.085 147.592C116.876 147.913 109.464 145.098 104.237 139.056C96.2707 129.861 96.1826 115.959 104.241 106.671C113.721 95.7277 130.292 95.2503 140.412 105.308L140.429 105.325C145.617 110.523 148.055 117.447 147.594 124.308C147.568 124.995 147.813 125.594 148.247 126.028C149.138 126.922 150.546 126.922 151.438 126.028L170.588 106.843C170.603 106.828 170.611 106.817 170.614 106.812L170.621 106.8L170.624 106.789L170.625 106.777C170.625 106.767 170.623 106.759 170.621 106.754L170.614 106.742C170.611 106.737 170.603 106.726 170.588 106.711L135.076 71.133C131.61 67.6613 131.61 62.1091 135.076 58.6374C137.184 56.5258 140.125 55.6829 142.91 56.2188C146.81 56.851 150.874 55.6813 153.801 52.7483C158.894 47.6462 158.693 39.2144 153.148 34.3855C148.362 30.4552 141.25 30.52 136.662 34.5121C133.232 37.4991 131.844 41.8599 132.498 45.9532L132.511 46.0317L132.521 46.1104C132.866 48.7016 132.147 51.5028 130.006 53.6477L129.885 53.7692C126.414 57.2458 120.856 57.247 117.384 53.7729L82.0119 18.3961L81.9325 18.3167C81.9172 18.3013 81.9032 18.2903 81.8987 18.2872L81.89 18.2824L81.8785 18.2804C81.873 18.2804 81.8692 18.2814 81.8669 18.2824L81.8583 18.2872Z" fill="#212121"/>
</svg>
