<svg width="194" height="194" viewBox="0 0 194 194" fill="none" xmlns="http://www.w3.org/2000/svg">
<path d="M67.5817 6.38031C48.1981 13.1047 31.4817 25.8677 19.8879 42.7947C8.29407 59.7218 2.43396 79.9206 3.16829 100.424C3.90262 120.928 11.1927 140.656 23.9677 156.71C36.7428 172.764 54.3294 184.299 74.1444 189.619C90.2088 193.765 107.04 193.947 123.19 190.15C137.821 186.864 151.347 179.834 162.445 169.75C173.995 158.933 182.379 145.173 186.695 129.949C191.386 113.394 192.221 95.983 189.135 79.0545H98.9248V116.475H151.168C150.124 122.444 147.887 128.14 144.59 133.223C141.293 138.307 137.004 142.673 131.981 146.06C125.601 150.28 118.41 153.12 110.868 154.396C103.304 155.803 95.5458 155.803 87.982 154.396C80.3158 152.811 73.0637 149.647 66.6875 145.105C56.4441 137.855 48.7527 127.553 44.7109 115.672C40.6008 103.568 40.6008 90.4461 44.7109 78.3422C47.588 69.858 52.3441 62.1331 58.6244 55.7442C65.8113 48.2987 74.9102 42.9765 84.9228 40.3618C94.9354 37.747 105.475 37.9406 115.385 40.9214C123.126 43.2978 130.205 47.4498 136.058 53.0464C141.948 47.186 147.829 41.3104 153.7 35.4197C156.731 32.252 160.035 29.2359 163.021 25.9925C154.087 17.6789 143.601 11.21 132.162 6.95625C111.333 -0.606875 88.5425 -0.810127 67.5817 6.38031Z" fill="white"/>
<path d="M67.5817 6.38084C88.5407 -0.814484 111.332 -0.616583 132.162 6.94162C143.603 11.2242 154.084 17.7244 163.005 26.0688C159.974 29.3122 156.776 32.3435 153.684 35.496C147.804 41.3665 141.928 47.2168 136.058 53.0469C130.205 47.4503 123.126 43.2983 115.385 40.9219C105.478 37.9307 94.939 37.7259 84.9238 40.33C74.9085 42.934 65.804 48.2464 58.6092 55.6841C52.329 62.073 47.5728 69.7979 44.6958 78.2821L13.2769 53.9563C24.5229 31.6548 43.9948 14.5959 67.5817 6.38084Z" fill="#E33629"/>
<path d="M4.94098 78.0545C6.62971 69.6851 9.43335 61.58 13.2769 53.9561L44.6958 78.3425C40.5857 90.4463 40.5857 103.568 44.6958 115.672C34.2279 123.756 23.7549 131.879 13.2769 140.044C3.65498 120.891 0.720456 99.0687 4.94098 78.0545Z" fill="#F8BD00"/>
<path d="M98.9248 79.04H189.135C192.221 95.9686 191.386 113.379 186.695 129.935C182.379 145.159 173.995 158.919 162.445 169.735C152.305 161.823 142.12 153.973 131.981 146.061C137.008 142.67 141.298 138.299 144.595 133.21C147.892 128.122 150.128 122.419 151.168 116.446H98.9248C98.9097 103.987 98.9248 91.5136 98.9248 79.04Z" fill="#587DBD"/>
<path d="M13.2617 140.044C23.7397 131.961 34.2127 123.837 44.6806 115.673C48.7305 127.558 56.4329 137.86 66.6875 145.106C73.0836 149.627 80.3513 152.765 88.0275 154.321C95.5913 155.728 103.35 155.728 110.913 154.321C118.455 153.045 125.647 150.205 132.026 145.985C142.166 153.897 152.351 161.748 162.49 169.659C151.394 179.749 137.868 186.784 123.235 190.075C107.085 193.872 90.2543 193.69 74.1898 189.544C61.4844 186.152 49.6166 180.172 39.3305 171.978C28.4431 163.335 19.5509 152.442 13.2617 140.044Z" fill="#319F43"/>
</svg>
