<svg width="195" height="195" viewBox="0 0 195 195" fill="none" xmlns="http://www.w3.org/2000/svg">
<path d="M125.126 18.7912C139.88 4.51345 164.531 15.0081 164.531 35.6315C164.531 38.2144 163.781 40.6245 162.486 42.6562H168.563C176.447 42.6562 182.812 49.0608 182.812 56.9273V83.229C182.812 90.3964 177.528 96.3503 170.625 97.3518V170.099C170.625 180.505 162.112 188.906 151.662 188.906H43.3382C32.9066 188.906 24.375 180.584 24.375 170.099V97.3518C17.4719 96.3502 12.1875 90.3964 12.1875 83.229V56.9273C12.1875 49.0608 18.5529 42.6562 26.4374 42.6562H32.4879C31.2086 40.6271 30.4688 38.2184 30.4688 35.6315C30.4688 15.0081 55.1198 4.45243 69.874 18.7912L80.7841 29.3695C83.6301 22.8348 90.054 18.2812 97.53 18.2812C104.997 18.2812 111.414 22.8235 114.241 29.3452L125.126 18.7912ZM36.5625 97.5V170.099C36.5625 173.713 39.4974 176.719 43.3382 176.719H79.2188V97.5H36.5625ZM115.781 97.5V176.719H151.662C155.484 176.719 158.437 173.672 158.437 170.099V97.5H115.781ZM170.625 83.229V56.9273C170.625 55.7621 169.686 54.8438 168.563 54.8438H115.781V85.3125H168.563C169.686 85.3125 170.625 84.3942 170.625 83.229ZM79.2188 54.8438H26.4374C25.3136 54.8438 24.375 55.7621 24.375 56.9273V83.229C24.375 84.3942 25.3136 85.3125 26.4374 85.3125H79.2188V54.8438Z" fill="white"/>
</svg>
