<svg width="194" height="194" viewBox="0 0 194 194" fill="none" xmlns="http://www.w3.org/2000/svg">
<g clip-path="url(#clip0_445_1310)">
<path d="M148.531 0H45.4688C20.3571 0 0 20.3571 0 45.4688V148.531C0 173.643 20.3571 194 45.4688 194H148.531C173.643 194 194 173.643 194 148.531V45.4688C194 20.3571 173.643 0 148.531 0Z" fill="url(#paint0_radial_445_1310)"/>
<path d="M148.531 0H45.4688C20.3571 0 0 20.3571 0 45.4688V148.531C0 173.643 20.3571 194 45.4688 194H148.531C173.643 194 194 173.643 194 148.531V45.4688C194 20.3571 173.643 0 148.531 0Z" fill="url(#paint1_radial_445_1310)"/>
<path d="M97.0068 21.2188C76.4261 21.2188 73.8428 21.3089 65.7599 21.6765C57.6923 22.0463 52.1852 23.3232 47.3671 25.1973C42.3822 27.1327 38.1543 29.7222 33.9424 33.9356C29.7267 38.1483 27.1373 42.3761 25.1958 47.3587C23.3164 52.1784 22.0379 57.6877 21.675 65.7516C21.3135 73.8352 21.2188 76.4193 21.2188 97.0008C21.2188 117.582 21.3097 120.157 21.6765 128.24C22.0478 136.308 23.3247 141.815 25.1973 146.633C27.1342 151.618 29.7237 155.846 33.9371 160.058C38.1483 164.273 42.3761 166.869 47.3572 168.804C52.1792 170.678 57.687 171.955 65.7531 172.325C73.8367 172.693 76.4178 172.783 96.9977 172.783C117.581 172.783 120.156 172.693 128.239 172.325C136.306 171.955 141.819 170.678 146.641 168.804C151.624 166.869 155.846 164.273 160.056 160.058C164.272 155.846 166.86 151.618 168.803 146.635C170.665 141.815 171.945 136.306 172.324 128.242C172.687 120.159 172.781 117.582 172.781 97.0008C172.781 76.4193 172.687 73.8367 172.324 65.7531C171.945 57.6854 170.665 52.1792 168.803 47.361C166.86 42.3761 164.272 38.1483 160.056 33.9356C155.841 29.7206 151.625 27.1312 146.637 25.198C141.806 23.3232 136.296 22.0455 128.228 21.6765C120.144 21.3089 117.571 21.2188 96.9833 21.2188H97.0068ZM90.2085 34.8753C92.2265 34.8723 94.478 34.8753 97.0068 34.8753C117.241 34.8753 119.639 34.948 127.629 35.311C135.018 35.649 139.028 36.8835 141.7 37.9209C145.236 39.2941 147.758 40.9363 150.408 43.5894C153.061 46.2417 154.702 48.7675 156.079 52.3042C157.117 54.9717 158.353 58.9821 158.689 66.3707C159.052 74.3596 159.131 76.7588 159.131 96.9833C159.131 117.208 159.052 119.608 158.689 127.596C158.351 134.985 157.117 138.995 156.079 141.663C154.706 145.2 153.061 147.718 150.408 150.369C147.756 153.021 145.238 154.663 141.7 156.037C139.031 157.079 135.018 158.31 127.629 158.648C119.64 159.011 117.241 159.09 97.0068 159.09C76.7717 159.09 74.3732 159.011 66.3851 158.648C58.9965 158.307 54.9861 157.073 52.3126 156.035C48.7766 154.661 46.2501 153.02 43.5977 150.367C40.9454 147.715 39.3039 145.195 37.927 141.657C36.8896 138.989 35.6536 134.979 35.3171 127.59C34.9541 119.601 34.8814 117.202 34.8814 96.9644C34.8814 76.7278 34.9541 74.3407 35.3171 66.3518C35.6551 58.9631 36.8896 54.9528 37.927 52.2815C39.3009 48.7448 40.9454 46.219 43.5985 43.5666C46.2508 40.9143 48.7766 39.2721 52.3133 37.8959C54.9846 36.8539 58.9965 35.6225 66.3851 35.283C73.376 34.967 76.0851 34.8723 90.2085 34.8563V34.8753ZM137.459 47.458C132.438 47.458 128.365 51.5275 128.365 56.5487C128.365 61.5692 132.438 65.6425 137.459 65.6425C142.479 65.6425 146.553 61.5692 146.553 56.5487C146.553 51.5282 142.479 47.455 137.459 47.455V47.458ZM97.0068 58.0833C75.5153 58.0833 58.0901 75.5084 58.0901 97.0008C58.0901 118.493 75.5153 135.91 97.0068 135.91C118.499 135.91 135.918 118.493 135.918 97.0008C135.918 75.5092 118.498 58.0833 97.0053 58.0833H97.0068ZM97.0068 71.7398C110.957 71.7398 122.268 83.0487 122.268 97.0008C122.268 110.951 110.957 122.262 97.0068 122.262C83.0555 122.262 71.7467 110.951 71.7467 97.0008C71.7467 83.0487 83.0555 71.7398 97.0068 71.7398Z" fill="white"/>
</g>
<defs>
<radialGradient id="paint0_radial_445_1310" cx="0" cy="0" r="1" gradientUnits="userSpaceOnUse" gradientTransform="translate(51.5312 208.942) rotate(-90) scale(192.268 178.825)">
<stop stop-color="#FFDD55"/>
<stop offset="0.1" stop-color="#FFDD55"/>
<stop offset="0.5" stop-color="#FF543E"/>
<stop offset="1" stop-color="#C837AB"/>
</radialGradient>
<radialGradient id="paint1_radial_445_1310" cx="0" cy="0" r="1" gradientUnits="userSpaceOnUse" gradientTransform="translate(-32.4958 13.9748) rotate(78.681) scale(85.945 354.268)">
<stop stop-color="#3771C8"/>
<stop offset="0.128" stop-color="#3771C8"/>
<stop offset="1" stop-color="#6600FF" stop-opacity="0"/>
</radialGradient>
<clipPath id="clip0_445_1310">
<rect width="194" height="194" fill="white"/>
</clipPath>
</defs>
</svg>
