<svg width="207" height="264" viewBox="0 0 207 264" fill="none" xmlns="http://www.w3.org/2000/svg">
<g clip-path="url(#clip0_163_10401)">
<path d="M150.977 60.3516C132.129 60.3516 116.895 71.7773 107.031 71.7773C96.582 71.7773 82.9102 61.0352 66.5039 61.0352C35.4492 61.0352 3.90625 86.7188 3.90625 135.156C3.90625 165.43 15.5273 197.266 29.9805 217.773C42.3828 235.156 53.125 249.512 68.75 249.512C84.1797 249.512 90.918 239.258 110.059 239.258C129.59 239.258 133.887 249.219 150.977 249.219C167.871 249.219 179.102 233.789 189.746 218.457C201.66 200.977 206.641 183.887 206.738 183.105C205.762 182.715 173.438 169.531 173.438 132.617C173.438 100.586 198.926 86.2305 200.293 85.1562C183.594 61.0352 158.008 60.3516 150.977 60.3516ZM142.09 39.9414C149.805 30.5664 155.273 17.8711 155.273 4.98047C155.273 3.22266 155.176 1.46484 154.785 0C142.285 0.488281 127.148 8.39844 118.164 19.043C111.035 27.0508 104.492 39.9414 104.492 52.832C104.492 54.6875 104.785 56.6406 104.98 57.3242C105.762 57.4219 107.031 57.6172 108.301 57.6172C119.629 57.6172 133.789 50.0977 142.09 39.9414Z" fill="black" fill-opacity="0.85"/>
</g>
<defs>
<clipPath id="clip0_163_10401">
<rect width="206.738" height="263.379" fill="white"/>
</clipPath>
</defs>
</svg>
