<svg width="268" height="35" viewBox="0 0 268 35" fill="none" xmlns="http://www.w3.org/2000/svg">
<path d="M11.3885 3.265C9.25854 4.075 7.60854 5.335 6.43854 7.045C5.26854 8.725 4.68354 10.795 4.68354 13.255C4.68354 14.365 4.78854 15.145 4.99854 15.595C5.20854 16.015 5.31354 16.255 5.31354 16.315C3.69354 16.315 2.47854 15.985 1.66854 15.325C0.888535 14.635 0.498535 13.51 0.498535 11.95C0.498535 10.03 1.27854 8.17 2.83854 6.37C4.42854 4.54 6.45354 3.07 8.91354 1.96C11.3735 0.820001 13.8335 0.25 16.2935 0.25C16.7135 0.25 17.3135 0.280001 18.0935 0.340002L18.4985 28.015L27.9485 0.475H33.6635L34.0685 28.015L43.5185 0.475H46.6685L34.1585 34H27.6785L27.1385 11.095L18.5885 34H12.1085L11.3885 3.265Z" fill="white"/>
<path d="M48.9147 34.27C47.2047 34.27 45.7797 33.685 44.6397 32.515C43.4997 31.345 42.9297 29.515 42.9297 27.025C42.9297 24.805 43.3647 22.48 44.2347 20.05C45.1347 17.59 46.4547 15.52 48.1947 13.84C49.9647 12.13 52.0647 11.275 54.4947 11.275C55.7247 11.275 56.6397 11.485 57.2397 11.905C57.8397 12.325 58.1397 12.88 58.1397 13.57V13.885L58.6347 11.5H65.1147L61.8747 26.8C61.7547 27.25 61.6947 27.73 61.6947 28.24C61.6947 29.53 62.3097 30.175 63.5397 30.175C64.3797 30.175 65.0997 29.785 65.6997 29.005C66.3297 28.225 66.8247 27.205 67.1847 25.945H69.0747C67.9647 29.185 66.5847 31.39 64.9347 32.56C63.3147 33.7 61.6797 34.27 60.0297 34.27C58.7697 34.27 57.7497 33.925 56.9697 33.235C56.2197 32.515 55.7697 31.48 55.6197 30.13C54.7497 31.36 53.7747 32.365 52.6947 33.145C51.6447 33.895 50.3847 34.27 48.9147 34.27ZM51.8397 29.905C52.5897 29.905 53.3247 29.56 54.0447 28.87C54.7947 28.15 55.3047 27.175 55.5747 25.945L57.7347 15.775C57.7347 15.385 57.5847 15.01 57.2847 14.65C56.9847 14.26 56.5197 14.065 55.8897 14.065C54.6897 14.065 53.6097 14.77 52.6497 16.18C51.6897 17.56 50.9397 19.24 50.3997 21.22C49.8597 23.17 49.5897 24.895 49.5897 26.395C49.5897 27.895 49.7997 28.855 50.2197 29.275C50.6697 29.695 51.2097 29.905 51.8397 29.905Z" fill="white"/>
<path d="M83.4462 34.27C81.6162 34.27 80.2662 33.79 79.3962 32.83C78.5562 31.84 78.1362 30.625 78.1362 29.185C78.1362 28.555 78.2112 27.85 78.3612 27.07C78.5112 26.26 78.6612 25.48 78.8112 24.73C78.9912 23.98 79.1112 23.5 79.1712 23.29C79.4112 22.24 79.6362 21.205 79.8462 20.185C80.0562 19.165 80.1612 18.34 80.1612 17.71C80.1612 16.18 79.6212 15.415 78.5412 15.415C77.7612 15.415 77.0712 15.805 76.4712 16.585C75.8712 17.335 75.3912 18.325 75.0312 19.555L71.9712 34H65.4912L70.2612 11.5H76.7412L76.2462 13.84C77.7462 12.16 79.5012 11.32 81.5112 11.32C83.0412 11.32 84.2562 11.74 85.1562 12.58C86.0562 13.42 86.5062 14.695 86.5062 16.405C86.5062 17.275 86.4012 18.25 86.1912 19.33C85.9812 20.38 85.6812 21.67 85.2912 23.2C85.0512 24.13 84.8262 25.045 84.6162 25.945C84.4362 26.815 84.3462 27.505 84.3462 28.015C84.3462 28.615 84.4812 29.08 84.7512 29.41C85.0212 29.74 85.4862 29.905 86.1462 29.905C87.0462 29.905 87.7662 29.59 88.3062 28.96C88.8462 28.3 89.3862 27.295 89.9262 25.945H91.8162C90.7062 29.245 89.4162 31.465 87.9462 32.605C86.5062 33.715 85.0062 34.27 83.4462 34.27Z" fill="white"/>
<path d="M95.3209 34.27C93.6109 34.27 92.1859 33.685 91.0459 32.515C89.9059 31.345 89.3359 29.515 89.3359 27.025C89.3359 24.805 89.7709 22.48 90.6409 20.05C91.5409 17.59 92.8609 15.52 94.6009 13.84C96.3709 12.13 98.4709 11.275 100.901 11.275C102.131 11.275 103.046 11.485 103.646 11.905C104.246 12.325 104.546 12.88 104.546 13.57V13.75L106.751 3.4L113.411 2.5L108.236 26.8C108.116 27.25 108.056 27.73 108.056 28.24C108.056 28.84 108.191 29.275 108.461 29.545C108.761 29.785 109.241 29.905 109.901 29.905C110.741 29.905 111.461 29.545 112.061 28.825C112.691 28.105 113.186 27.145 113.546 25.945H115.436C113.606 31.315 110.591 34 106.391 34C105.161 34 104.156 33.67 103.376 33.01C102.626 32.35 102.161 31.39 101.981 30.13C101.201 31.33 100.256 32.32 99.1459 33.1C98.0659 33.88 96.7909 34.27 95.3209 34.27ZM98.2459 29.905C98.9659 29.905 99.6859 29.575 100.406 28.915C101.156 28.255 101.666 27.34 101.936 26.17V25.945L104.141 15.64C103.871 14.59 103.256 14.065 102.296 14.065C101.096 14.065 100.016 14.77 99.0559 16.18C98.0959 17.56 97.3459 19.24 96.8059 21.22C96.2659 23.17 95.9959 24.895 95.9959 26.395C95.9959 27.895 96.2059 28.855 96.6259 29.275C97.0759 29.695 97.6159 29.905 98.2459 29.905Z" fill="white"/>
<path d="M119.998 34.27C117.778 34.27 116.053 33.7 114.823 32.56C113.593 31.39 112.978 29.575 112.978 27.115C112.978 25.045 113.383 22.765 114.193 20.275C115.003 17.785 116.323 15.64 118.153 13.84C119.983 12.01 122.308 11.095 125.128 11.095C128.428 11.095 130.078 12.535 130.078 15.415C130.078 17.095 129.599 18.64 128.639 20.05C127.679 21.46 126.404 22.6 124.813 23.47C123.224 24.31 121.528 24.79 119.728 24.91C119.668 25.81 119.638 26.41 119.638 26.71C119.638 28.18 119.893 29.185 120.403 29.725C120.913 30.235 121.738 30.49 122.878 30.49C124.498 30.49 125.878 30.115 127.018 29.365C128.188 28.615 129.463 27.475 130.843 25.945H132.373C129.043 31.495 124.918 34.27 119.998 34.27ZM120.088 22.75C121.198 22.69 122.248 22.3 123.238 21.58C124.258 20.86 125.068 19.945 125.668 18.835C126.298 17.725 126.613 16.555 126.613 15.325C126.613 14.095 126.238 13.48 125.488 13.48C124.408 13.48 123.343 14.425 122.293 16.315C121.273 18.205 120.538 20.35 120.088 22.75Z" fill="white"/>
<path d="M133.894 11.5H140.374L139.789 14.29C140.809 13.39 141.724 12.7 142.534 12.22C143.374 11.74 144.274 11.5 145.234 11.5C146.194 11.5 146.944 11.83 147.484 12.49C148.054 13.15 148.339 13.945 148.339 14.875C148.339 15.745 148.054 16.51 147.484 17.17C146.914 17.83 146.119 18.16 145.099 18.16C144.439 18.16 143.989 18.01 143.749 17.71C143.539 17.38 143.374 16.915 143.254 16.315C143.164 15.925 143.074 15.64 142.984 15.46C142.894 15.28 142.729 15.19 142.489 15.19C141.859 15.19 141.319 15.325 140.869 15.595C140.449 15.835 139.894 16.27 139.204 16.9L135.604 34H129.124L133.894 11.5Z" fill="white"/>
<path d="M153.738 34.27C151.698 34.27 150.138 33.775 149.058 32.785C147.978 31.765 147.438 30.34 147.438 28.51C147.438 27.61 147.543 26.755 147.753 25.945L152.568 3.4L159.228 2.5L157.068 12.625C157.908 12.115 158.598 11.785 159.138 11.635C159.678 11.455 160.218 11.365 160.758 11.365C164.298 11.365 166.068 13.93 166.068 19.06C166.068 21.13 165.663 23.35 164.853 25.72C164.073 28.06 162.753 30.07 160.893 31.75C159.063 33.43 156.678 34.27 153.738 34.27ZM156.258 29.905C157.188 29.905 158.058 29.335 158.868 28.195C159.678 27.025 160.323 25.585 160.803 23.875C161.283 22.135 161.523 20.47 161.523 18.88C161.523 17.68 161.313 16.66 160.893 15.82C160.473 14.98 159.888 14.56 159.138 14.56C158.688 14.56 158.178 14.635 157.608 14.785C157.068 14.905 156.693 15.1 156.483 15.37L154.008 26.8C153.918 27.16 153.873 27.505 153.873 27.835C153.873 29.215 154.668 29.905 156.258 29.905Z" fill="white"/>
<path d="M174.318 34.18C172.098 34.18 170.343 33.61 169.053 32.47C167.763 31.33 167.118 29.53 167.118 27.07C167.118 25.03 167.538 22.765 168.378 20.275C169.218 17.785 170.568 15.64 172.428 13.84C174.288 12.01 176.628 11.095 179.448 11.095C183.288 11.095 185.208 13.495 185.208 18.295V18.34C185.298 18.37 185.463 18.385 185.703 18.385C186.693 18.385 187.833 18.13 189.123 17.62C190.413 17.08 191.583 16.435 192.633 15.685L193.038 16.9C192.168 17.83 191.028 18.625 189.618 19.285C188.238 19.915 186.723 20.365 185.073 20.635C184.833 23.365 184.218 25.75 183.228 27.79C182.238 29.83 180.963 31.405 179.403 32.515C177.843 33.625 176.148 34.18 174.318 34.18ZM176.118 30.13C176.838 30.13 177.558 29.725 178.278 28.915C178.998 28.075 179.628 26.95 180.168 25.54C180.708 24.1 181.098 22.51 181.338 20.77C180.528 20.59 180.123 19.96 180.123 18.88C180.123 17.65 180.588 16.84 181.518 16.45C181.458 15.46 181.308 14.785 181.068 14.425C180.828 14.035 180.408 13.84 179.808 13.84C178.818 13.84 177.858 14.56 176.928 16C175.998 17.44 175.248 19.165 174.678 21.175C174.108 23.185 173.823 24.955 173.823 26.485C173.823 27.925 173.988 28.9 174.318 29.41C174.648 29.89 175.248 30.13 176.118 30.13Z" fill="white"/>
<path d="M192.923 34.27C191.213 34.27 189.788 33.685 188.648 32.515C187.508 31.345 186.938 29.515 186.938 27.025C186.938 24.805 187.373 22.48 188.243 20.05C189.143 17.59 190.463 15.52 192.203 13.84C193.973 12.13 196.073 11.275 198.503 11.275C199.733 11.275 200.648 11.485 201.248 11.905C201.848 12.325 202.148 12.88 202.148 13.57V13.885L202.643 11.5H209.123L205.883 26.8C205.763 27.25 205.703 27.73 205.703 28.24C205.703 29.53 206.318 30.175 207.548 30.175C208.388 30.175 209.108 29.785 209.708 29.005C210.338 28.225 210.833 27.205 211.193 25.945H213.083C211.973 29.185 210.593 31.39 208.943 32.56C207.323 33.7 205.688 34.27 204.038 34.27C202.778 34.27 201.758 33.925 200.978 33.235C200.228 32.515 199.778 31.48 199.628 30.13C198.758 31.36 197.783 32.365 196.703 33.145C195.653 33.895 194.393 34.27 192.923 34.27ZM195.848 29.905C196.598 29.905 197.333 29.56 198.053 28.87C198.803 28.15 199.313 27.175 199.583 25.945L201.743 15.775C201.743 15.385 201.593 15.01 201.293 14.65C200.993 14.26 200.528 14.065 199.898 14.065C198.698 14.065 197.618 14.77 196.658 16.18C195.698 17.56 194.948 19.24 194.408 21.22C193.868 23.17 193.598 24.895 193.598 26.395C193.598 27.895 193.808 28.855 194.228 29.275C194.678 29.695 195.218 29.905 195.848 29.905Z" fill="white"/>
<path d="M214.27 11.5H220.75L220.165 14.29C221.185 13.39 222.1 12.7 222.91 12.22C223.75 11.74 224.65 11.5 225.61 11.5C226.57 11.5 227.32 11.83 227.86 12.49C228.43 13.15 228.715 13.945 228.715 14.875C228.715 15.745 228.43 16.51 227.86 17.17C227.29 17.83 226.495 18.16 225.475 18.16C224.815 18.16 224.365 18.01 224.125 17.71C223.915 17.38 223.75 16.915 223.63 16.315C223.54 15.925 223.45 15.64 223.36 15.46C223.27 15.28 223.105 15.19 222.865 15.19C222.235 15.19 221.695 15.325 221.245 15.595C220.825 15.835 220.27 16.27 219.58 16.9L215.98 34H209.5L214.27 11.5Z" fill="white"/>
<path d="M233.529 34.27C231.819 34.27 230.394 33.685 229.254 32.515C228.114 31.345 227.544 29.515 227.544 27.025C227.544 24.805 227.979 22.48 228.849 20.05C229.749 17.59 231.069 15.52 232.809 13.84C234.579 12.13 236.679 11.275 239.109 11.275C240.339 11.275 241.254 11.485 241.854 11.905C242.454 12.325 242.754 12.88 242.754 13.57V13.75L244.959 3.4L251.619 2.5L246.444 26.8C246.324 27.25 246.264 27.73 246.264 28.24C246.264 28.84 246.399 29.275 246.669 29.545C246.969 29.785 247.449 29.905 248.109 29.905C248.949 29.905 249.669 29.545 250.269 28.825C250.899 28.105 251.394 27.145 251.754 25.945H253.644C251.814 31.315 248.799 34 244.599 34C243.369 34 242.364 33.67 241.584 33.01C240.834 32.35 240.369 31.39 240.189 30.13C239.409 31.33 238.464 32.32 237.354 33.1C236.274 33.88 234.999 34.27 233.529 34.27ZM236.454 29.905C237.174 29.905 237.894 29.575 238.614 28.915C239.364 28.255 239.874 27.34 240.144 26.17V25.945L242.349 15.64C242.079 14.59 241.464 14.065 240.504 14.065C239.304 14.065 238.224 14.77 237.264 16.18C236.304 17.56 235.554 19.24 235.014 21.22C234.474 23.17 234.204 24.895 234.204 26.395C234.204 27.895 234.414 28.855 234.834 29.275C235.284 29.695 235.824 29.905 236.454 29.905Z" fill="white"/>
<g clip-path="url(#clip0_60_11068)">
<path d="M264.508 18.4743C263.414 17.5837 261.102 18.4072 260.049 19.6825C259.547 20.3022 258.754 21.6903 258.459 23.0549L261.194 25.2839C262.474 24.7236 263.685 23.6902 264.197 23.069C265.243 21.7857 265.603 19.365 264.508 18.4743ZM257.45 27.0686C258.23 27.7052 259.288 27.2751 260.185 26.1853C260.278 26.0737 260.407 25.8893 260.494 25.7489L258.149 23.8326C258.024 23.9437 257.876 24.1054 257.782 24.2218C256.884 25.3115 256.671 26.4273 257.45 27.0686Z" fill="white"/>
<path d="M258.487 11.8845C257.158 11.4188 255.268 12.9829 254.721 14.5426C254.456 15.2986 254.195 16.8727 254.382 18.2519L257.719 19.4212C258.727 18.4608 259.505 17.0677 259.77 16.3116C260.316 14.752 259.821 12.3519 258.487 11.8845ZM254.818 22.3713C255.769 22.7047 256.61 21.9424 257.077 20.6109C257.125 20.473 257.189 20.2605 257.218 20.0999L254.36 19.0981C254.278 19.2402 254.195 19.4461 254.146 19.584C253.68 20.9155 253.861 22.0362 254.818 22.3713Z" fill="white"/>
</g>
<defs>
<clipPath id="clip0_60_11068">
<rect width="12" height="15" fill="white" transform="translate(255.96 11) rotate(19.3111)"/>
</clipPath>
</defs>
</svg>
