<svg width="210" height="210" viewBox="0 0 210 210" fill="none" xmlns="http://www.w3.org/2000/svg">
<path d="M41.9121 179.244L57.334 194.666C60.3527 197.685 65.4715 197.356 68.884 193.944C68.884 193.944 70.7215 192.106 70.9183 190.925C71.7058 185.61 67.6371 180.885 71.7715 176.685C75.9715 172.485 81.484 176.947 86.0121 175.831C87.1933 175.503 89.2933 173.6 89.2933 173.6C92.7058 170.188 93.034 165.069 90.0152 162.05L74.5933 146.628C71.5746 143.61 66.4558 143.938 63.0433 147.35L42.6996 167.694C39.2215 171.106 38.8933 176.291 41.9121 179.244Z" fill="#D9D9D9"/>
<path d="M101.894 29.291C119.087 12.0972 146.191 7.63474 166.666 20.6941C195.212 38.9379 198.231 77.7879 175.656 100.363C159.631 116.429 135.37 119.548 116.132 109.75L41.5843 184.297C36.0062 189.81 27.8031 192.172 21.5031 189.219C11.1343 184.363 10.5437 170.713 18.8781 162.379C18.8781 162.379 25.7687 155.619 29.9031 151.354C30.8905 150.311 53.1549 128.084 61.3549 119.897C62.9645 118.291 64.0321 117.225 64.2906 116.966C66.792 114.465 88.8371 92.5228 93.8118 87.5716C92.1535 84.4621 90.7223 81.0914 89.5562 77.4597C84.1093 60.4629 89.2937 41.891 101.894 29.291ZM120.662 46.6816C114.362 52.9816 111.737 62.3004 114.494 70.766C121.122 91.3066 144.681 95.1785 157.544 82.2504C168.831 70.9629 167.322 51.5379 153.016 42.416C142.844 35.8535 129.259 38.0847 120.662 46.6816Z" fill="white"/>
<path d="M85.1135 85.1135C87.0356 83.1913 90.1519 83.1913 92.074 85.1135L118.324 111.363C120.246 113.286 120.246 116.402 118.324 118.324C116.81 119.838 114.554 120.16 112.725 119.288C113.597 121.117 113.276 123.372 111.762 124.887C109.839 126.809 106.723 126.809 104.801 124.887L78.551 98.6365C76.6288 96.7144 76.6288 93.5981 78.551 91.676C80.0652 90.1617 82.3207 89.8404 84.1496 90.7121C83.2779 88.8832 83.5992 86.6277 85.1135 85.1135Z" fill="#F2F4F7"/>
</svg>
