<svg width="170" height="157" viewBox="0 0 170 157" fill="none" xmlns="http://www.w3.org/2000/svg">
<path d="M85 0.25C131.883 0.25 169.883 29.8673 169.883 66.4121C169.883 102.949 131.883 132.566 85.0081 132.566C80.3405 132.568 75.6777 132.271 71.0481 131.677L35.4168 154.981C31.3671 157.123 29.9363 156.889 31.6015 151.643L38.8118 121.912C15.5318 110.111 0.133057 89.6598 0.133057 66.4121C0.133057 29.8754 38.1247 0.25 85.0081 0.25M132.764 65.4017L144.647 53.891C145.333 53.1789 145.715 52.2285 145.714 51.24C145.713 50.2515 145.328 49.3021 144.64 48.5916C143.953 47.8812 143.017 47.4653 142.029 47.4315C141.041 47.3977 140.079 47.7487 139.344 48.4105L123.76 63.494V51.0295C123.76 50.0176 123.358 49.0472 122.642 48.3317C121.927 47.6161 120.956 47.2142 119.944 47.2142C118.932 47.2142 117.962 47.6161 117.246 48.3317C116.531 49.0472 116.129 50.0176 116.129 51.0295V71.6986C115.986 72.2882 115.986 72.9034 116.129 73.4931V85.125C116.129 86.1369 116.531 87.1073 117.246 87.8229C117.962 88.5384 118.932 88.9403 119.944 88.9403C120.956 88.9403 121.927 88.5384 122.642 87.8229C123.358 87.1073 123.76 86.1369 123.76 85.125V74.1074L127.211 70.769L138.754 87.2024C139.042 87.6127 139.409 87.9622 139.832 88.2309C140.255 88.4997 140.727 88.6825 141.221 88.7688C141.715 88.8551 142.221 88.8433 142.71 88.734C143.2 88.6248 143.663 88.4202 144.073 88.132C144.483 87.8438 144.833 87.4776 145.101 87.0543C145.37 86.6311 145.553 86.159 145.639 85.6651C145.726 85.1712 145.714 84.6652 145.605 84.1758C145.495 83.6865 145.291 83.2234 145.003 82.8132L132.764 65.4017ZM108.854 80.954H97.0522V51.1508C97.0071 50.1703 96.5858 49.245 95.876 48.5671C95.1662 47.8892 94.2224 47.511 93.2409 47.511C92.2594 47.511 91.3157 47.8892 90.6059 48.5671C89.8961 49.245 89.4748 50.1703 89.4296 51.1508V84.7693C89.4296 86.871 91.1271 88.5847 93.2369 88.5847H108.854C109.866 88.5847 110.836 88.1827 111.552 87.4672C112.267 86.7517 112.669 85.7812 112.669 84.7693C112.669 83.7575 112.267 82.787 111.552 82.0715C110.836 81.356 109.866 80.954 108.854 80.954ZM61.5098 72.1351L67.1358 58.3288L72.293 72.127L61.5098 72.1351ZM81.904 76.0717L81.9202 75.9423C81.9183 74.9812 81.5514 74.0566 80.8936 73.3557L72.4385 50.7223C72.084 49.6438 71.4089 48.699 70.5032 48.0144C69.5976 47.3297 68.5046 46.9378 67.3702 46.8908C66.2276 46.8858 65.1105 47.2288 64.1675 47.8743C63.2246 48.5198 62.5006 49.437 62.0918 50.5041L48.6573 83.4437C48.2746 84.3805 48.2798 85.431 48.6717 86.3641C49.0635 87.2971 49.81 88.0363 50.7468 88.419C51.6837 88.8016 52.7342 88.7965 53.6672 88.4046C54.6003 88.0127 55.3395 87.2663 55.7221 86.3294L58.4058 79.7577H75.1383L77.5471 86.2243C77.7115 86.7077 77.9711 87.1532 78.3107 87.5344C78.6504 87.9156 79.063 88.2247 79.5243 88.4435C79.9856 88.6623 80.4861 88.7863 80.9961 88.8082C81.5062 88.83 82.0155 88.7493 82.4938 88.5707C82.9721 88.3922 83.4097 88.1195 83.7806 87.7687C84.1516 87.418 84.4484 86.9963 84.6535 86.5288C84.8586 86.0612 84.9677 85.5573 84.9744 85.0468C84.9812 84.5363 84.8854 84.0296 84.6928 83.5568L81.904 76.0717ZM55.0431 51.1912C55.0431 50.1807 54.6423 49.2115 53.9285 48.4962C53.2147 47.7809 52.2464 47.378 51.2359 47.3758H25.0055C23.9936 47.3758 23.0231 47.7778 22.3076 48.4933C21.5921 49.2088 21.1901 50.1793 21.1901 51.1912C21.1901 52.2031 21.5921 53.1735 22.3076 53.889C23.0231 54.6045 23.9936 55.0065 25.0055 55.0065H34.3821V85.2058C34.3821 86.2177 34.7841 87.1882 35.4996 87.9037C36.2151 88.6192 37.1856 89.0212 38.1975 89.0212C39.2094 89.0212 40.1798 88.6192 40.8953 87.9037C41.6108 87.1882 42.0128 86.2177 42.0128 85.2058V55.0065H51.2278C52.2397 55.0065 53.2101 54.6045 53.9257 53.889C54.6412 53.1735 55.0431 52.2031 55.0431 51.1912Z" fill="#3C1D1E"/>
</svg>
